<svg xmlns="http://www.w3.org/2000/svg" xmlns:xlink="http://www.w3.org/1999/xlink" width="14" height="14" viewBox="0 0 14 14">
  <defs>
    <clipPath id="clip-path">
      <rect id="Rectangle_1311" data-name="Rectangle 1311" width="14" height="14" transform="translate(9.711 9.444)"/>
    </clipPath>
  </defs>
  <g id="Mask_Group_413" data-name="Mask Group 413" transform="translate(-9.711 -9.444)" clip-path="url(#clip-path)">
    <g id="XMLID_746_" transform="translate(9.711 9.444)">
      <g id="Group_3042" data-name="Group 3042">
        <path id="Path_4164" data-name="Path 4164" d="M12.054,9.925a4.453,4.453,0,0,1-1.3-3.149v-1.1A3.751,3.751,0,0,0,7.91,2.033V.91a.91.91,0,0,0-1.82,0V2.033A3.751,3.751,0,0,0,3.25,5.672v1.1a4.453,4.453,0,0,1-1.3,3.149,1.283,1.283,0,0,0,.908,2.191H5.116a1.884,1.884,0,1,0,3.768,0h2.263a1.283,1.283,0,0,0,.908-2.191ZM7,13.075a.96.96,0,0,1-.959-.959H7.959A.96.96,0,0,1,7,13.075Zm4.478-2.105a.358.358,0,0,1-.331.221H2.853a.359.359,0,0,1-.254-.612,5.343,5.343,0,0,0,1.575-3.8v-1.1a2.825,2.825,0,0,1,5.651,0v1.1a5.343,5.343,0,0,0,1.575,3.8A.358.358,0,0,1,11.478,10.97Z"/>
      </g>
    </g>
  </g>
</svg>
