<svg xmlns="http://www.w3.org/2000/svg" xmlns:xlink="http://www.w3.org/1999/xlink" width="26" height="26" viewBox="0 0 26 26">
  <defs>
    <clipPath id="clip-path">
      <rect id="Rectangle_1322" data-name="Rectangle 1322" width="12" height="12" transform="translate(7.328 7.205)" fill="red"/>
    </clipPath>
  </defs>
  <g id="Group_3019" data-name="Group 3019" transform="translate(-0.328 -0.205)">
    <circle id="Ellipse_44" data-name="Ellipse 44" cx="13" cy="13" r="13" transform="translate(0.328 0.205)" fill="#fe6782" opacity="0.12"/>
    <g id="Mask_Group_419" data-name="Mask Group 419" clip-path="url(#clip-path)">
      <g id="block" transform="translate(7.328 7.205)">
        <g id="Group_3068" data-name="Group 3068">
          <path id="Path_4180" data-name="Path 4180" d="M6,0a6,6,0,1,0,6,6A6,6,0,0,0,6,0ZM1.2,6A4.795,4.795,0,0,1,8.94,2.211L2.211,8.94A4.782,4.782,0,0,1,1.2,6ZM6,10.8A4.782,4.782,0,0,1,3.06,9.789L9.789,3.06A4.795,4.795,0,0,1,6,10.8Z" fill="red"/>
        </g>
      </g>
    </g>
  </g>
</svg>
