<svg xmlns="http://www.w3.org/2000/svg" width="26" height="26" viewBox="0 0 26 26">
  <g id="Group_3019" data-name="Group 3019" transform="translate(-0.328 -0.205)">
    <circle id="Ellipse_44" data-name="Ellipse 44" cx="13" cy="13" r="13" transform="translate(0.328 0.205)" fill="#fe6782" opacity="0.12"/>
    <g id="Group_4958" data-name="Group 4958" transform="translate(-4034.589 -210.303)">
      <path id="Path_4709" data-name="Path 4709" d="M4230.088,505.232a.3.3,0,0,1,.056,0c.106.018.145-.038.194-.126a.258.258,0,0,0-.072-.368.435.435,0,0,1,.008-.7c.122-.118.243-.238.366-.355a.437.437,0,0,1,.644.008.18.18,0,0,1,.021.023.253.253,0,0,0,.381.09c.083-.046.134-.081.121-.177,0,0,0-.007,0-.011-.032-.4.174-.621.608-.579.137.013.276,0,.414.007a.434.434,0,0,1,.441.436.077.077,0,0,1,0,.021.279.279,0,0,0,.252.381.182.182,0,0,0,.127-.023,2,2,0,0,0,.163-.151.429.429,0,0,1,.6.01c.145.141.285.286.422.434a.431.431,0,0,1-.007.612l-.015.015c-.194.195-.2.2-.086.448a.143.143,0,0,0,.1.07c.087.013.178,0,.265.015a.426.426,0,0,1,.381.427c0,.212,0,.425-.015.637a.425.425,0,0,1-.406.39h-.053c-.275,0-.277,0-.375.262a.15.15,0,0,0,.023.119c.043.06.1.107.152.162a.431.431,0,0,1-.008.6q-.215.221-.442.429a.431.431,0,0,1-.6-.007l-.022-.022c-.2-.195-.2-.2-.448-.087a.161.161,0,0,0-.073.108,1.527,1.527,0,0,0-.006.212.428.428,0,0,1-.412.42c-.219.006-.439,0-.658-.009a.43.43,0,0,1-.392-.417,2.122,2.122,0,0,1,0-.223.107.107,0,0,0-.076-.121c-.249-.1-.248-.107-.445.08a.433.433,0,0,1-.643-.009q-.2-.2-.392-.4a.433.433,0,0,1,.007-.627l.008-.007c.2-.2.2-.2.086-.45a.15.15,0,0,0-.1-.069,1.862,1.862,0,0,0-.212-.006.436.436,0,0,1-.43-.448c0-.163.012-.326,0-.488A.466.466,0,0,1,4230.088,505.232Zm1.045.767a1.371,1.371,0,1,0,1.369-1.372A1.37,1.37,0,0,0,4231.134,506Z" transform="translate(-182.603 -279.451)"/>
      <path id="Path_4710" data-name="Path 4710" d="M4171,400.338v-6.125c0-.209.081-.29.289-.29h1.53c.2,0,.28.08.28.285,0,.864,0,1.728,0,2.592a.275.275,0,0,1-.065.154,2.048,2.048,0,0,1-.181.179.614.614,0,0,0-.011.936c.036.037.1.07.054.138a.16.16,0,0,1-.092.061c-.077.011-.157,0-.232.014a.609.609,0,0,0-.49.589c-.005.177,0,.354-.006.531a.615.615,0,0,0,.659.676c.048,0,.106-.022.132.053s-.065.2-.174.206-.227,0-.34,0H4171Z" transform="translate(-125.304 -172.663)"/>
      <path id="Path_4711" data-name="Path 4711" d="M4047.57,464.5h-2.09v-.117q0-2.368,0-4.737c0-.157,0-.16.161-.16.6,0,1.2,0,1.805,0,.1,0,.13.034.13.13q0,2.406,0,4.811C4047.575,464.446,4047.572,464.467,4047.57,464.5Z" transform="translate(-2.455 -236.829)"/>
      <path id="Path_4712" data-name="Path 4712" d="M4302.426,340.188c-.164-.015-.312-.033-.462-.041-.13-.007-.262-.005-.393-.006a.608.608,0,0,0-.648.62c0,.063.034.152-.072.172a.111.111,0,0,1-.088-.018.738.738,0,0,0-.429-.26v-3.6c0-.213.074-.286.288-.286h1.54c.183,0,.269.082.27.264q0,1.551,0,3.1A.44.44,0,0,1,4302.426,340.188Z" transform="translate(-251.888 -116.727)"/>
      <path id="Path_4713" data-name="Path 4713" d="M4049.644,218.007l-.931-.089c-.142-.013-.227-.1-.22-.22a.208.208,0,0,1,.255-.189q.851.077,1.7.157a.2.2,0,0,1,.172.315q-.438.759-.885,1.511a.2.2,0,0,1-.286.073.206.206,0,0,1-.064-.289c.134-.233.271-.464.407-.7a.317.317,0,0,0,.046-.117l-.124.066-6.028,3.326a.462.462,0,1,1-.429-.815q.866-.414,1.733-.826l4.533-2.147C4049.556,218.053,4049.586,218.036,4049.644,218.007Z" transform="translate(0 0)"/>
    </g>
  </g>
</svg>
