<svg xmlns="http://www.w3.org/2000/svg" xmlns:xlink="http://www.w3.org/1999/xlink" width="26" height="26" viewBox="0 0 26 26">
  <defs>
    <clipPath id="clip-path">
      <rect id="Rectangle_1322" data-name="Rectangle 1322" width="12" height="12" transform="translate(-0.1 -0.007)"/>
    </clipPath>
  </defs>
  <g id="Group_3018" data-name="Group 3018" transform="translate(-0.112 -0.205)">
    <circle id="Ellipse_44" data-name="Ellipse 44" cx="13" cy="13" r="13" transform="translate(0.112 0.205)" fill="#fe6782" opacity="0.12"/>
    <g id="Mask_Group_406" data-name="Mask Group 406" transform="translate(7.212 7.212)" clip-path="url(#clip-path)">
      <g id="trash_2_" data-name="trash (2)" transform="translate(1.222 0.142)">
        <path id="Path_4139" data-name="Path 4139" d="M10.521,1.44H8.541V1.08A1.081,1.081,0,0,0,7.462,0H6.022a1.081,1.081,0,0,0-1.08,1.08v.36H2.962a.9.9,0,0,0-.9.9V3.6a.36.36,0,0,0,.36.36h.2l.311,6.53a1.079,1.079,0,0,0,1.079,1.028H9.475a1.078,1.078,0,0,0,1.079-1.028l.311-6.53h.2a.36.36,0,0,0,.36-.36V2.34a.9.9,0,0,0-.9-.9ZM5.662,1.08a.36.36,0,0,1,.36-.36h1.44a.36.36,0,0,1,.36.36v.36H5.662ZM2.782,2.34a.18.18,0,0,1,.18-.18h7.559a.18.18,0,0,1,.18.18v.9H2.782Zm7.052,8.116a.36.36,0,0,1-.36.343H4.009a.359.359,0,0,1-.36-.343l-.309-6.5h6.8Z" transform="translate(-2.063)"/>
        <path id="Path_4140" data-name="Path 4140" d="M10.672,14.337a.36.36,0,0,0,.36-.36V9.3a.36.36,0,1,0-.72,0v4.679A.36.36,0,0,0,10.672,14.337Z" transform="translate(-5.993 -4.258)"/>
        <path id="Path_4141" data-name="Path 4141" d="M14.11,14.337a.36.36,0,0,0,.36-.36V9.3a.36.36,0,1,0-.72,0v4.679A.36.36,0,0,0,14.11,14.337Z" transform="translate(-7.631 -4.258)"/>
        <path id="Path_4142" data-name="Path 4142" d="M7.235,14.337a.36.36,0,0,0,.36-.36V9.3a.36.36,0,0,0-.72,0v4.679A.36.36,0,0,0,7.235,14.337Z" transform="translate(-4.355 -4.258)"/>
      </g>
    </g>
  </g>
</svg>
