<svg xmlns="http://www.w3.org/2000/svg" xmlns:xlink="http://www.w3.org/1999/xlink" width="26" height="26" viewBox="0 0 26 26">
  <defs>
    <clipPath id="clip-path">
      <rect id="Rectangle_1322" data-name="Rectangle 1322" width="12" height="12" transform="translate(0.116 -0.007)"/>
    </clipPath>
  </defs>
  <g id="Group_3067" data-name="Group 3067" transform="translate(-0.328 -0.205)">
    <circle id="Ellipse_44" data-name="Ellipse 44" cx="13" cy="13" r="13" transform="translate(0.328 0.205)" fill="#fe6782" opacity="0.12"/>
    <g id="Mask_Group_407" data-name="Mask Group 407" transform="translate(7.212 7.212)" clip-path="url(#clip-path)">
      <path id="undo-arrow" d="M10.62,2.5A5.739,5.739,0,0,0,2.582,1.435a5.759,5.759,0,0,0-.981.958L1.344.943A.292.292,0,0,0,1.006.706L.241.841A.292.292,0,0,0,0,1.179L.613,4.624a.291.291,0,0,0,.338.236L4.4,4.253a.292.292,0,0,0,.236-.338L4.5,3.149a.292.292,0,0,0-.338-.236l-1.436.253a4.392,4.392,0,0,1,.685-.651A4.373,4.373,0,1,1,8.726,9.46a4.324,4.324,0,0,1-2.649.9,4.465,4.465,0,0,1-.585-.039,4.377,4.377,0,0,1-3.737-3.6.292.292,0,0,0-.336-.239L.652,6.61a.292.292,0,0,0-.239.336,5.737,5.737,0,0,0,4.9,4.726,5.839,5.839,0,0,0,.766.051,5.736,5.736,0,0,0,5.673-4.98A5.7,5.7,0,0,0,10.62,2.5Z" transform="translate(0 -0.088)" fill="#231f20"/>
    </g>
  </g>
</svg>
