<svg xmlns="http://www.w3.org/2000/svg" xmlns:xlink="http://www.w3.org/1999/xlink" width="18" height="18" viewBox="0 0 18 18">
  <defs>
    <clipPath id="clip-path">
      <rect id="Rectangle_1310" data-name="Rectangle 1310" width="18" height="18" transform="translate(29 95)"/>
    </clipPath>
  </defs>
  <g id="Mask_Group_418" data-name="Mask Group 418" transform="translate(-29 -95)" clip-path="url(#clip-path)">
    <g id="logout_1_" data-name="logout (1)" transform="translate(29 95)">
      <path id="Path_4178" data-name="Path 4178" d="M11.25,9.75a.75.75,0,0,0-.75.75v3a.751.751,0,0,1-.75.75H7.5V3A1.512,1.512,0,0,0,6.478,1.574L6.256,1.5H9.75a.751.751,0,0,1,.75.75V4.5a.75.75,0,1,0,1.5,0V2.25A2.253,2.253,0,0,0,9.75,0H1.687a.589.589,0,0,0-.08.016C1.571.014,1.537,0,1.5,0A1.5,1.5,0,0,0,0,1.5V15a1.512,1.512,0,0,0,1.021,1.426l4.514,1.5A1.553,1.553,0,0,0,6,18a1.5,1.5,0,0,0,1.5-1.5v-.75H9.75A2.253,2.253,0,0,0,12,13.5v-3a.75.75,0,0,0-.75-.75Zm0,0"/>
      <path id="Path_4179" data-name="Path 4179" d="M17.78,6.97l-3-3a.75.75,0,0,0-1.28.53V6.75h-3a.75.75,0,1,0,0,1.5h3V10.5a.75.75,0,0,0,1.28.53l3-3a.749.749,0,0,0,0-1.06Zm0,0"/>
    </g>
  </g>
</svg>
