<svg xmlns="http://www.w3.org/2000/svg" width="18" height="17.486" viewBox="0 0 18 17.486">
  <path id="Path_4701" data-name="Path 4701" d="M2287.2,696.588v-.966a4.01,4.01,0,0,1,1.361-2.3c.092-.068.1-.287.1-.436a7.586,7.586,0,0,1,3.91-6.866.958.958,0,0,0,.5-.678,3.181,3.181,0,0,1,6.269-.01,1.018,1.018,0,0,0,.543.71,7.538,7.538,0,0,1,3.859,6.729.9.9,0,0,0,.341.769,3.188,3.188,0,0,1-3.171,5.432.842.842,0,0,0-.784.09,7.41,7.41,0,0,1-7.834,0,1.018,1.018,0,0,0-.835-.085,4.3,4.3,0,0,1-1.527.1A3.165,3.165,0,0,1,2287.2,696.588Zm12.055,1.027c-.991-2.642-.125-4.144,2.782-4.872a5.479,5.479,0,0,0-3.02-5.261,3.235,3.235,0,0,1-5.623-.007c-2.012,1.073-3.359,3.461-3,5.307a3.359,3.359,0,0,1,2.787,1.626,3.467,3.467,0,0,1-.02,3.219A5.687,5.687,0,0,0,2299.256,697.615ZM2297.74,685.9a1.526,1.526,0,1,0-3.052,0,1.526,1.526,0,1,0,3.052,0Zm4.242,8.524a1.614,1.614,0,0,0-1.529,1.606,1.682,1.682,0,0,0,1.635,1.528,1.663,1.663,0,0,0,1.527-1.628A1.611,1.611,0,0,0,2301.981,694.428Zm-11.64,3.134a1.669,1.669,0,0,0,1.625-1.532,1.579,1.579,0,0,0-3.156-.089A1.652,1.652,0,0,0,2290.341,697.562Z" transform="translate(-2287.201 -682.702)"/>
</svg>
