<svg xmlns="http://www.w3.org/2000/svg" xmlns:xlink="http://www.w3.org/1999/xlink" width="18" height="18" viewBox="0 0 18 18">
  <defs>
    <clipPath id="clip-path">
      <rect id="Rectangle_1310" data-name="Rectangle 1310" width="18" height="18" transform="translate(29 95)"/>
    </clipPath>
  </defs>
  <g id="Mask_Group_415" data-name="Mask Group 415" transform="translate(-29 -95)" clip-path="url(#clip-path)">
    <g id="rss-symbol" transform="translate(29 95)">
      <g id="Group_3048" data-name="Group 3048">
        <path id="Path_4167" data-name="Path 4167" d="M2.454,13.09a2.367,2.367,0,0,0-1.739.716,2.469,2.469,0,0,0,0,3.477A2.368,2.368,0,0,0,2.454,18a2.367,2.367,0,0,0,1.738-.716,2.469,2.469,0,0,0,0-3.477A2.367,2.367,0,0,0,2.454,13.09Z"/>
        <path id="Path_4168" data-name="Path 4168" d="M8.1,9.895a11.3,11.3,0,0,0-3.311-2.32A11.46,11.46,0,0,0,.882,6.546H.818a.745.745,0,0,0-.55.217.753.753,0,0,0-.268.6V9.089a.786.786,0,0,0,.211.55.776.776,0,0,0,.53.256,7.951,7.951,0,0,1,5,2.358,7.949,7.949,0,0,1,2.358,5A.8.8,0,0,0,8.909,18h1.726a.753.753,0,0,0,.6-.268.775.775,0,0,0,.218-.614,11.467,11.467,0,0,0-1.029-3.911A11.3,11.3,0,0,0,8.1,9.895Z"/>
        <path id="Path_4169" data-name="Path 4169" d="M16.464,10.732a17.921,17.921,0,0,0-3.758-5.439A17.919,17.919,0,0,0,7.267,1.535,17.739,17.739,0,0,0,.856,0H.818a.765.765,0,0,0-.562.23A.756.756,0,0,0,0,.819V2.647A.783.783,0,0,0,.224,3.2a.765.765,0,0,0,.543.249,14.483,14.483,0,0,1,5.222,1.3,14.7,14.7,0,0,1,4.295,2.959,14.7,14.7,0,0,1,2.959,4.295,14.289,14.289,0,0,1,1.291,5.222.766.766,0,0,0,.249.543.8.8,0,0,0,.569.224h1.828a.755.755,0,0,0,.588-.256.74.74,0,0,0,.23-.6A17.737,17.737,0,0,0,16.464,10.732Z"/>
      </g>
    </g>
  </g>
</svg>
