<svg class="bg-[#c1c1c1] text-red fill-[#c1c1c1] w-[100px]" xmlns="http://www.w3.org/2000/svg" xmlns:xlink="http://www.w3.org/1999/xlink" width="18" height="18" viewBox="0 0 18 18">
  <defs>
    <clipPath id="clip-path">
      <rect id="Rectangle_1310" data-name="Rectangle 1310" width="18" height="18" transform="translate(29 95)"/>
    </clipPath>
  </defs>
  <g id="Mask_Group_417" data-name="Mask Group 417" transform="translate(-29 -95)" clip-path="url(#clip-path)">
    <g id="group" transform="translate(29 95)">
      <g id="Group_3054" data-name="Group 3054">
        <g id="Group_3053" data-name="Group 3053">
          <path id="Path_4172" data-name="Path 4172" d="M15.4,9.609H14.01a3.621,3.621,0,0,1,.219,1.245v5.261a1.551,1.551,0,0,1-.089.52h2.3A1.561,1.561,0,0,0,18,15.075V12.207A2.6,2.6,0,0,0,15.4,9.609Z"/>
        </g>
      </g>
      <g id="Group_3056" data-name="Group 3056">
        <g id="Group_3055" data-name="Group 3055">
          <path id="Path_4173" data-name="Path 4173" d="M3.771,10.854A3.621,3.621,0,0,1,3.99,9.609H2.6a2.6,2.6,0,0,0-2.6,2.6v2.868a1.561,1.561,0,0,0,1.559,1.559h2.3a1.552,1.552,0,0,1-.089-.52Z"/>
        </g>
      </g>
      <g id="Group_3058" data-name="Group 3058">
        <g id="Group_3057" data-name="Group 3057">
          <path id="Path_4174" data-name="Path 4174" d="M10.591,8.255H7.409a2.6,2.6,0,0,0-2.6,2.6v5.261a.52.52,0,0,0,.52.52h7.34a.52.52,0,0,0,.52-.52V10.854A2.6,2.6,0,0,0,10.591,8.255Z"/>
        </g>
      </g>
      <g id="Group_3060" data-name="Group 3060">
        <g id="Group_3059" data-name="Group 3059">
          <path id="Path_4175" data-name="Path 4175" d="M9,1.365A3.124,3.124,0,1,0,12.125,4.49,3.128,3.128,0,0,0,9,1.365Z"/>
        </g>
      </g>
      <g id="Group_3062" data-name="Group 3062">
        <g id="Group_3061" data-name="Group 3061">
          <path id="Path_4176" data-name="Path 4176" d="M3.513,4.278A2.336,2.336,0,1,0,5.85,6.615,2.34,2.34,0,0,0,3.513,4.278Z"/>
        </g>
      </g>
      <g id="Group_3064" data-name="Group 3064">
        <g id="Group_3063" data-name="Group 3063">
          <path id="Path_4177" data-name="Path 4177" d="M14.487,4.278a2.337,2.337,0,1,0,2.337,2.337A2.34,2.34,0,0,0,14.487,4.278Z"/>
        </g>
      </g>
    </g>
  </g>
</svg>
